<?xml version="1.0" encoding="utf-8"?>
<!-- Generator: Adobe Illustrator 23.0.1, SVG Export Plug-In . SVG Version: 6.00 Build 0)  -->
<svg version="1.1" xmlns="http://www.w3.org/2000/svg" xmlns:xlink="http://www.w3.org/1999/xlink" x="0px" y="0px"
	 viewBox="0 0 600 140" style="enable-background:new 0 0 600 140;" xml:space="preserve">
<style type="text/css">
	.st0{fill:url(#SVGID_1_);}
	.st1{fill:#2B3990;}
	.st2{fill:#1B75BC;}
	.st3{fill:#FFFFFF;}
	.st4{fill:#58595B;}
</style>
<g id="Background">
</g>
<g id="Objects">
	<g>
		<g>
			<polygon class="st3" points="0,94.46 159.41,140 188.58,128.17 			"/>
			<path class="st3" d="M276.46,54.92l-12.07-25.77c-5.07-10.81-14.74-18.76-26.32-21.62l-25.87-6.38
				c-6.03-1.49-12.32-1.53-18.36-0.13L23.36,44.08v9.53l39.25-8.43c1.91-0.41,3.7,1.1,3.61,3.05l-0.74,17.78
				c-0.07,1.67-1.48,2.95-3.15,2.87L23.36,66.8v9.32l147.37,12.7L23.36,87.71v1.54l148.69,30.5c20.26,4.7,41.42,3.78,61.21-2.65
				l29.96-9.74c10.12-3.29,16.98-12.74,16.98-23.39V71.73C280.2,65.92,278.92,60.18,276.46,54.92z M120.23,68.05
				c-0.09,2.15-1.91,3.81-4.05,3.69l-36.9-1.96c-2.11-0.11-3.73-1.9-3.65-4.01l0.85-20.61c0.07-1.76,1.32-3.24,3.04-3.61l37.31-8.02
				c2.46-0.53,4.76,1.41,4.66,3.93L120.23,68.05z M166.67,74.43l-32.69-1.74c-2.11-0.11-3.73-1.9-3.65-4.01l1.46-35.4
				c0.07-1.76,1.32-3.24,3.04-3.61l30.83-6.62c2.38-0.51,4.64,1.3,4.66,3.74l0.4,43.77C170.75,72.77,168.89,74.55,166.67,74.43z
				 M200.08,10.74c-1.07-2.92,1.57-5.83,4.57-5.05l28.1,7.31c10.73,2.65,19.57,9.91,24.27,19.93l13.9,29.66h-36.4
				c-9.28,0-17.57-5.8-20.77-14.52L200.08,10.74z M227.06,101.21c-4.59,0-8.32-3.73-8.32-8.33c0-4.6,3.72-8.33,8.32-8.33
				c4.59,0,8.32,3.73,8.32,8.33C235.37,97.48,231.65,101.21,227.06,101.21z M264.96,92.88c-4.59,0-8.32-3.73-8.32-8.33
				c0-4.6,3.72-8.33,8.32-8.33c4.59,0,8.32,3.73,8.32,8.33C273.27,89.15,269.55,92.88,264.96,92.88z"/>
		</g>
		<g>
			<path class="st3" d="M323.25,61.35h-10.62l6.44-30.99h-8.61l1.87-8.79h27.93l-1.93,8.79h-8.64L323.25,61.35z"/>
			<path class="st3" d="M351.5,46.88l-3.07,14.47h-10.62l8.39-39.78h10.51c4.56,0,8.06,0.91,10.49,2.72
				c2.43,1.82,3.64,4.54,3.64,8.19c0,2.83-0.64,5.3-1.93,7.4c-1.29,2.11-3.2,3.71-5.73,4.82l6.09,14.04l1.09,2.61h-11.57l-5.3-14.47
				H351.5z M353.21,38.8h1.39c1.72,0,3.09-0.49,4.1-1.48c1.01-0.99,1.52-2.37,1.52-4.15c0-1.12-0.31-1.98-0.94-2.57
				c-0.62-0.59-1.53-0.88-2.73-0.88h-1.44L353.21,38.8z"/>
			<path class="st3" d="M396.38,53.9h-12.17l-3.4,7.45h-11.03L390,21.58h13.66L407,61.35h-10.35L396.38,53.9z M388.1,45.41h7.96
				l-0.46-11.54l-0.05-2.34c0-1.36,0.03-2.55,0.11-3.56c-0.43,1.56-0.99,3.06-1.66,4.52L388.1,45.41z"/>
			<path class="st3" d="M411.51,61.35l8.39-39.78h10.79l-8.39,39.78H411.51z"/>
			<path class="st3" d="M466.25,61.35h-12.36l-7.85-27.97h-0.22c-0.52,5.28-1.04,9.07-1.55,11.37l-3.5,16.6h-9.45l8.39-39.78h12.36
				l7.77,26.74h0.24c0.53-4.28,1.04-7.65,1.55-10.1l3.56-16.65h9.46L466.25,61.35z"/>
			<path class="st3" d="M331.48,102.24c0,3.81-1.31,6.79-3.93,8.95c-2.62,2.16-6.22,3.24-10.83,3.24c-3.8,0-6.95-0.68-9.45-2.04
				v-6.09c3.13,1.76,6.3,2.64,9.51,2.64c2.48,0,4.44-0.53,5.87-1.59c1.43-1.06,2.15-2.53,2.15-4.42c0-1.25-0.37-2.36-1.11-3.33
				c-0.74-0.97-2.3-2.21-4.67-3.71c-1.9-1.21-3.3-2.32-4.21-3.32c-0.91-1-1.6-2.09-2.08-3.28c-0.48-1.19-0.72-2.5-0.72-3.93
				c0-2.32,0.56-4.38,1.67-6.18c1.11-1.8,2.69-3.18,4.73-4.16c2.04-0.98,4.33-1.47,6.89-1.47c3.71,0,7.16,0.84,10.35,2.5l-2.34,5.2
				c-2.92-1.42-5.59-2.12-8.02-2.12c-1.97,0-3.56,0.53-4.75,1.59c-1.2,1.06-1.79,2.44-1.79,4.15c0,0.85,0.14,1.6,0.41,2.24
				c0.27,0.64,0.69,1.24,1.26,1.8c0.57,0.55,1.79,1.42,3.66,2.6c2.81,1.76,4.74,3.46,5.81,5.1
				C330.94,98.23,331.48,100.12,331.48,102.24z"/>
			<path class="st3" d="M360.03,79.11c-2.79,0-5.28,0.81-7.47,2.42c-2.19,1.61-3.94,3.97-5.26,7.06c-1.31,3.09-1.97,6.49-1.97,10.19
				c0,3.26,0.75,5.76,2.24,7.5c1.5,1.73,3.7,2.6,6.62,2.6c2.55,0,5.53-0.62,8.94-1.85v5.58c-3.26,1.21-6.65,1.82-10.16,1.82
				c-4.49,0-8.01-1.35-10.55-4.04s-3.82-6.47-3.82-11.33c0-4.72,0.95-9.1,2.87-13.14c1.91-4.04,4.46-7.12,7.65-9.22
				c3.19-2.1,6.83-3.16,10.92-3.16c3.93,0,7.45,0.84,10.57,2.5l-2.55,5.31c-1.14-0.62-2.35-1.14-3.64-1.58
				C363.12,79.33,361.66,79.11,360.03,79.11z"/>
			<path class="st3" d="M398.36,113.88h-6.47l3.8-17.93h-15.38l-3.78,17.93h-6.44l8.39-39.78h6.44l-3.45,16.27h15.38l3.45-16.27
				h6.44L398.36,113.88z"/>
			<path class="st3" d="M429.53,113.88h-21.08l8.39-39.78h21.08l-1.17,5.58h-14.64l-2.28,10.75h13.64l-1.11,5.52h-13.69l-2.61,12.41
				h14.64L429.53,113.88z"/>
			<path class="st3" d="M471.42,89.59c0,4.92-0.91,9.2-2.72,12.87s-4.45,6.48-7.9,8.46c-3.46,1.98-7.53,2.96-12.2,2.96H437.7
				l8.39-39.78h10.03c4.91,0,8.69,1.32,11.33,3.94C470.09,80.68,471.42,84.53,471.42,89.59z M448.92,108.41
				c3.21,0,6.01-0.78,8.4-2.34c2.39-1.56,4.22-3.75,5.5-6.58c1.28-2.83,1.91-6.06,1.91-9.69c0-3.34-0.8-5.88-2.39-7.63
				c-1.59-1.75-3.91-2.63-6.96-2.63h-3.97l-6.17,28.87H448.92z"/>
			<path class="st3" d="M511.68,74.11l-5.49,26.01c-1.01,4.84-2.9,8.44-5.65,10.79c-2.75,2.35-6.4,3.52-10.95,3.52
				c-3.93,0-6.97-0.96-9.11-2.88c-2.15-1.92-3.22-4.69-3.22-8.3c0-1.51,0.18-3.05,0.55-4.63l5.24-24.51h6.44l-5.22,24.62
				c-0.38,1.6-0.57,3.03-0.57,4.3c0,1.85,0.54,3.29,1.62,4.31c1.08,1.03,2.71,1.54,4.9,1.54c2.63,0,4.71-0.73,6.25-2.19
				c1.54-1.46,2.66-3.83,3.37-7.12l5.41-25.46H511.68z"/>
			<path class="st3" d="M513.04,113.88l8.39-39.78h6.44l-7.23,34.2h14.64l-1.17,5.58H513.04z"/>
			<path class="st3" d="M561.72,113.88h-21.08l8.39-39.78h21.08l-1.17,5.58h-14.64l-2.28,10.75h13.64l-1.11,5.52h-13.69l-2.61,12.41
				h14.64L561.72,113.88z"/>
			<path class="st3" d="M579.68,97.99l-3.34,15.89h-6.44l8.39-39.78h9.18c4.04,0,7.14,0.86,9.29,2.57c2.16,1.71,3.23,4.35,3.23,7.9
				c0,2.99-0.78,5.52-2.35,7.58c-1.57,2.06-3.9,3.56-7,4.5l6.77,17.22h-7.06l-5.62-15.89H579.68z M580.85,92.61h3.34
				c3.08,0,5.38-0.68,6.9-2.04c1.52-1.36,2.28-3.23,2.28-5.61c0-1.9-0.53-3.27-1.6-4.11s-2.73-1.25-4.97-1.25h-3.23L580.85,92.61z"
				/>
		</g>
	</g>
</g>
<g id="Designed_by_Freepik">
</g>
</svg>
